<mxfile host="app.diagrams.net" agent="Mozilla/5.0 (Windows NT 10.0; Win64; x64) AppleWebKit/537.36 (KHTML, like Gecko) Chrome/134.0.0.0 Safari/537.36" version="26.1.3">
  <diagram name="Trang-1" id="TfrgyMOBkvcZu-1TLkiu">
    <mxGraphModel dx="1434" dy="1907" grid="1" gridSize="10" guides="1" tooltips="1" connect="1" arrows="1" fold="1" page="1" pageScale="1" pageWidth="827" pageHeight="1169" math="0" shadow="0">
      <root>
        <mxCell id="0" />
        <mxCell id="1" parent="0" />
        <mxCell id="CHENmEF09m0fQlO9Xh4H-1" value="" style="rounded=0;whiteSpace=wrap;html=1;fillColor=none;" vertex="1" parent="1">
          <mxGeometry x="210" y="-30" width="560" height="540" as="geometry" />
        </mxCell>
        <mxCell id="CHENmEF09m0fQlO9Xh4H-2" value="Customer" style="shape=umlActor;verticalLabelPosition=bottom;verticalAlign=top;html=1;outlineConnect=0;" vertex="1" parent="1">
          <mxGeometry x="60" y="170" width="30" height="60" as="geometry" />
        </mxCell>
        <mxCell id="CHENmEF09m0fQlO9Xh4H-3" value="Giám sát trạng thái thiết bị" style="ellipse;whiteSpace=wrap;html=1;" vertex="1" parent="1">
          <mxGeometry x="260" y="90" width="120" height="80" as="geometry" />
        </mxCell>
        <mxCell id="CHENmEF09m0fQlO9Xh4H-4" value="Lọc theo khoảng thời gian" style="ellipse;whiteSpace=wrap;html=1;" vertex="1" parent="1">
          <mxGeometry x="480" y="-20" width="120" height="80" as="geometry" />
        </mxCell>
        <mxCell id="CHENmEF09m0fQlO9Xh4H-5" value="Thống kê trạng thái 1 thuộc tính&amp;nbsp;" style="ellipse;whiteSpace=wrap;html=1;" vertex="1" parent="1">
          <mxGeometry x="430" y="160" width="120" height="80" as="geometry" />
        </mxCell>
        <mxCell id="CHENmEF09m0fQlO9Xh4H-6" value="Thống kê dạng biểu đồ" style="ellipse;whiteSpace=wrap;html=1;" vertex="1" parent="1">
          <mxGeometry x="620" y="100" width="120" height="80" as="geometry" />
        </mxCell>
        <mxCell id="CHENmEF09m0fQlO9Xh4H-7" value="Thống kê dạng bảng" style="ellipse;whiteSpace=wrap;html=1;" vertex="1" parent="1">
          <mxGeometry x="620" y="200" width="120" height="80" as="geometry" />
        </mxCell>
        <mxCell id="CHENmEF09m0fQlO9Xh4H-8" value="Chỉnh sửa cấu hình thiết bị" style="ellipse;whiteSpace=wrap;html=1;" vertex="1" parent="1">
          <mxGeometry x="250" y="260" width="120" height="80" as="geometry" />
        </mxCell>
        <mxCell id="CHENmEF09m0fQlO9Xh4H-9" value="Thông báo tới người dùng" style="ellipse;whiteSpace=wrap;html=1;" vertex="1" parent="1">
          <mxGeometry x="490" y="300" width="120" height="80" as="geometry" />
        </mxCell>
        <mxCell id="CHENmEF09m0fQlO9Xh4H-10" value="Thêm kỹ sư hỗ trợ" style="ellipse;whiteSpace=wrap;html=1;" vertex="1" parent="1">
          <mxGeometry x="440" y="410" width="120" height="80" as="geometry" />
        </mxCell>
        <mxCell id="CHENmEF09m0fQlO9Xh4H-11" value="&amp;lt;&amp;lt;extend&amp;gt;&amp;gt;" style="html=1;verticalAlign=bottom;labelBackgroundColor=none;endArrow=open;endFill=0;dashed=1;rounded=0;exitX=0;exitY=0;exitDx=0;exitDy=0;entryX=0.913;entryY=0.765;entryDx=0;entryDy=0;entryPerimeter=0;" edge="1" parent="1" source="CHENmEF09m0fQlO9Xh4H-10" target="CHENmEF09m0fQlO9Xh4H-8">
          <mxGeometry width="160" relative="1" as="geometry">
            <mxPoint x="405.21" y="380" as="sourcePoint" />
            <mxPoint x="384.79333333333324" y="450" as="targetPoint" />
          </mxGeometry>
        </mxCell>
        <mxCell id="CHENmEF09m0fQlO9Xh4H-12" value="&amp;lt;&amp;lt;include&amp;gt;&amp;gt;" style="html=1;verticalAlign=bottom;labelBackgroundColor=none;endArrow=open;endFill=0;dashed=1;rounded=0;entryX=0.043;entryY=0.33;entryDx=0;entryDy=0;entryPerimeter=0;" edge="1" parent="1" target="CHENmEF09m0fQlO9Xh4H-9">
          <mxGeometry width="160" relative="1" as="geometry">
            <mxPoint x="370" y="310" as="sourcePoint" />
            <mxPoint x="490" y="320" as="targetPoint" />
          </mxGeometry>
        </mxCell>
        <mxCell id="CHENmEF09m0fQlO9Xh4H-13" value="&amp;lt;&amp;lt;extend&amp;gt;&amp;gt;" style="html=1;verticalAlign=bottom;labelBackgroundColor=none;endArrow=open;endFill=0;dashed=1;rounded=0;exitX=0;exitY=0.5;exitDx=0;exitDy=0;entryX=1;entryY=1;entryDx=0;entryDy=0;" edge="1" parent="1" source="CHENmEF09m0fQlO9Xh4H-5" target="CHENmEF09m0fQlO9Xh4H-3">
          <mxGeometry width="160" relative="1" as="geometry">
            <mxPoint x="330" y="239.5" as="sourcePoint" />
            <mxPoint x="490" y="239.5" as="targetPoint" />
          </mxGeometry>
        </mxCell>
        <mxCell id="CHENmEF09m0fQlO9Xh4H-14" value="" style="endArrow=block;endSize=16;endFill=0;html=1;rounded=0;entryX=1;entryY=0.375;entryDx=0;entryDy=0;entryPerimeter=0;" edge="1" parent="1" target="CHENmEF09m0fQlO9Xh4H-5">
          <mxGeometry width="160" relative="1" as="geometry">
            <mxPoint x="620" y="139.5" as="sourcePoint" />
            <mxPoint x="780" y="139.5" as="targetPoint" />
          </mxGeometry>
        </mxCell>
        <mxCell id="CHENmEF09m0fQlO9Xh4H-15" value="" style="endArrow=block;endSize=16;endFill=0;html=1;rounded=0;entryX=1;entryY=1;entryDx=0;entryDy=0;" edge="1" parent="1" target="CHENmEF09m0fQlO9Xh4H-5">
          <mxGeometry width="160" relative="1" as="geometry">
            <mxPoint x="620" y="234.75" as="sourcePoint" />
            <mxPoint x="550" y="245.25" as="targetPoint" />
          </mxGeometry>
        </mxCell>
        <mxCell id="CHENmEF09m0fQlO9Xh4H-16" value="" style="endArrow=none;html=1;rounded=0;entryX=0.059;entryY=0.693;entryDx=0;entryDy=0;entryPerimeter=0;" edge="1" parent="1" target="CHENmEF09m0fQlO9Xh4H-3">
          <mxGeometry width="50" height="50" relative="1" as="geometry">
            <mxPoint x="119" y="180" as="sourcePoint" />
            <mxPoint x="250" y="150" as="targetPoint" />
          </mxGeometry>
        </mxCell>
        <mxCell id="CHENmEF09m0fQlO9Xh4H-17" value="" style="endArrow=none;html=1;rounded=0;entryX=0;entryY=0;entryDx=0;entryDy=0;" edge="1" parent="1" target="CHENmEF09m0fQlO9Xh4H-8">
          <mxGeometry width="50" height="50" relative="1" as="geometry">
            <mxPoint x="120" y="220" as="sourcePoint" />
            <mxPoint x="200" y="190" as="targetPoint" />
          </mxGeometry>
        </mxCell>
        <mxCell id="CHENmEF09m0fQlO9Xh4H-18" value="" style="endArrow=none;html=1;rounded=0;entryX=0;entryY=0;entryDx=0;entryDy=0;" edge="1" parent="1" target="CHENmEF09m0fQlO9Xh4H-4">
          <mxGeometry width="50" height="50" relative="1" as="geometry">
            <mxPoint x="110" y="170" as="sourcePoint" />
            <mxPoint x="527.5735931288073" y="-30.0042712474619" as="targetPoint" />
          </mxGeometry>
        </mxCell>
        <mxCell id="CHENmEF09m0fQlO9Xh4H-19" value="" style="endArrow=none;html=1;rounded=0;entryX=0;entryY=1;entryDx=0;entryDy=0;" edge="1" parent="1" target="CHENmEF09m0fQlO9Xh4H-10">
          <mxGeometry width="50" height="50" relative="1" as="geometry">
            <mxPoint x="110" y="240" as="sourcePoint" />
            <mxPoint x="150" y="340" as="targetPoint" />
          </mxGeometry>
        </mxCell>
        <mxCell id="CHENmEF09m0fQlO9Xh4H-20" value="&amp;lt;&amp;lt;include&amp;gt;&amp;gt;" style="html=1;verticalAlign=bottom;labelBackgroundColor=none;endArrow=open;endFill=0;dashed=1;rounded=0;entryX=0.571;entryY=0.998;entryDx=0;entryDy=0;entryPerimeter=0;" edge="1" parent="1" source="CHENmEF09m0fQlO9Xh4H-5" target="CHENmEF09m0fQlO9Xh4H-4">
          <mxGeometry width="160" relative="1" as="geometry">
            <mxPoint x="445" y="74" as="sourcePoint" />
            <mxPoint x="550" y="70" as="targetPoint" />
          </mxGeometry>
        </mxCell>
        <mxCell id="CHENmEF09m0fQlO9Xh4H-21" value="" style="endArrow=none;html=1;rounded=0;entryX=0.031;entryY=0.618;entryDx=0;entryDy=0;entryPerimeter=0;" edge="1" parent="1" target="CHENmEF09m0fQlO9Xh4H-5">
          <mxGeometry width="50" height="50" relative="1" as="geometry">
            <mxPoint x="120" y="200" as="sourcePoint" />
            <mxPoint x="170" y="150" as="targetPoint" />
          </mxGeometry>
        </mxCell>
        <mxCell id="CHENmEF09m0fQlO9Xh4H-22" value="&lt;font style=&quot;font-size: 30px;&quot;&gt;&lt;b&gt;Quản lý cấu hình thiết bị&lt;/b&gt;&lt;/font&gt;" style="text;html=1;align=center;verticalAlign=middle;resizable=0;points=[];autosize=1;strokeColor=none;fillColor=none;" vertex="1" parent="1">
          <mxGeometry x="305" y="-120" width="370" height="50" as="geometry" />
        </mxCell>
      </root>
    </mxGraphModel>
  </diagram>
</mxfile>
